<svg xmlns="http://www.w3.org/2000/svg" viewBox="0 0 512 512">
  <path fill="#4285F4" d="M391.8,214.3h-30c-4.8,0-8.7,3.9-8.7,8.7v21.7h-30c-4.8,0-8.7,3.9-8.7,8.7v21.7h-30c-4.8,0-8.7,3.9-8.7,8.7v13
  c0,4.8,3.9,8.7,8.7,8.7h30v-21.7c0-4.8,3.9-8.7,8.7-8.7h30v-21.7c0-4.8,3.9-8.7,8.7-8.7h30v-21.7C400.5,218.2,396.6,214.3,391.8,214.3z"/>
  <path fill="#4285F4" d="M235.5,275.4h-30c-4.8,0-8.7,3.9-8.7,8.7v13c0,4.8,3.9,8.7,8.7,8.7h30v-21.7c0-4.8,3.9-8.7,8.7-8.7h30v-21.7
  c0-4.8,3.9-8.7,8.7-8.7h30v-21.7c0-4.8-3.9-8.7-8.7-8.7h-30c-4.8,0-8.7,3.9-8.7,8.7v21.7h-30c-4.8,0-8.7,3.9-8.7,8.7v21.7H235.5z"/>
</svg>